<?xml version="1.0" encoding="utf-8"?>
<svg xmlns="http://www.w3.org/2000/svg" viewBox="-5143.096 70.976 7602.602 3057.813" xmlns:bx="https://boxy-svg.com" width="7602.602px" height="3057.813px"><defs><radialGradient gradientUnits="userSpaceOnUse" cx="1247.15" cy="744.206" r="27.74" id="gradient-0"><stop offset="0" style="stop-color: #bada55"/><stop offset="1" style="stop-color: #758d29"/></radialGradient><view id="view-1" viewBox="4182.283 -414.525 1098.404 712.893"><title>nakroth</title></view><bx:export><bx:file format="svg" path="terrain.svg"/></bx:export><view id="view-2" viewBox="5972.089 -600.827 1457.252 1222.755"><title>murad</title></view><radialGradient gradientUnits="userSpaceOnUse" cx="1247.15" cy="744.206" r="27.74" id="gradient-1"><stop offset="0" style="stop-color: #bada55"/><stop offset="1" style="stop-color: #758d29"/></radialGradient></defs><path style="stroke: rgb(0, 0, 0); fill: rgb(55, 65, 81);" d="M -4978.5 2562.28 L 1722.54 186.633 L 2317.41 316.348 L 2156.13 674.466 L -4284.6 2999.41 L -4961.4 3000.85 L -4978.5 2562.28 Z"/><g style="" transform="matrix(26.258209, 0, 0, 19.283659, -39975.363281, 12460.331055)"><title>murad</title><g><title>body</title><ellipse style="stroke: url(&quot;#gradient-0&quot;); fill: rgba(206, 218, 170, 0); stroke-width: 0px;" cx="1247.15" cy="744.206" rx="27.74" ry="27.321"><title>skill2</title><animate attributeName="fill" values="rgb(80.784% 85.49% 66.667% / 0);rgb(100% 64.314% 12.549% / 0.50196);rgb(100% 64.314% 12.549% / 0.50196);rgb(100% 64.314% 12.549% / 0)" begin="7.52s" dur="0.94s" fill="freeze" keyTimes="0; 0.239141; 0.766011; 1"/></ellipse><path style="stroke: rgb(0, 0, 0); fill: rgb(54, 54, 54);" d="M 1245.898 732.805 C 1243.546 732.081 1241.629 737.142 1242.082 738.952 L 1244.469 744.918 C 1244.625 745.337 1246.212 742.368 1246.288 743.46 C 1246.386 744.858 1249.442 747.186 1249.098 742.695 C 1251.077 744.956 1252.964 735.066 1250.985 732.805 C 1250.168 732.261 1245.715 732.683 1245.898 732.805 Z"/><path style="stroke: rgb(0, 0, 0); stroke-width: 0px; fill: rgb(61, 61, 61);" d="M 1243.169 725.575 L 1246.421 722.705 L 1250.184 722.769 C 1250.184 722.769 1251.015 721.175 1250.12 719.262 C 1249.532 718.005 1243.845 717.459 1241.611 720.981 C 1240.446 722.818 1241.071 723.475 1241.938 728.023"/><ellipse style="stroke-width: 0px; stroke: rgb(255, 240, 165); fill: rgb(255, 220, 1);" cx="1246.21" cy="726.136" rx="4.301" ry="5.201"/><path style="stroke: rgb(0, 0, 0); fill: rgb(81, 81, 81); stroke-width: 0px;" d="M 1240.778 726.789 C 1245.757 735.005 1250.192 732.559 1251.017 725.51"/><path style="stroke-width: 0px; stroke: rgb(0, 0, 0); fill: rgb(181, 0, 0);" d="M 1240.501 721.891 L 1250.781 720.942 L 1250.451 723.088 L 1240.667 723.873 L 1238.272 725.73 L 1237.281 724.203 L 1240.501 721.891 Z"/><animate attributeName="opacity" values="1;0.09;0.02;1" begin="0.03s" dur="1.72s" fill="freeze" keyTimes="0; 0.108554; 0.821149; 1"/><animate attributeName="opacity" values="1;0.03;0.02;1" begin="2.15s" dur="2s" fill="freeze" keyTimes="0; 0.13279; 0.85693; 1"/></g><g style="transform-origin: 1251.88px 737.307px;"><title>knite</title><path style="fill: rgb(255, 255, 255); stroke: rgb(99, 99, 99); transform-origin: 1247.62px 738.586px;" d="M 1248.94 735.155 L 1248.31 729.148 L 1246.61 730.351 L 1247.1 735.738 L 1248.32 748.397 C 1248.32 748.397 1251.18 736.026 1248.96 735.151" transform="matrix(0.297038, 1.053773, -0.865241, 0.297038, 0.000005, -0.000009)"/><ellipse style="stroke-width: 0px; stroke: rgb(0, 0, 0); fill: rgb(51, 51, 51); transform-origin: 1253.36px 725.035px;" cx="1251.33" cy="720.656" rx="2.11" ry="1.477" transform="matrix(-0.556831, -0.830626, -0.949273, 0.379844, -6.305622, 11.716144)"><title>handle</title></ellipse><animateTransform type="rotate" additive="sum" attributeName="transform" values="0;-50;0" begin="11.08s" dur="0.34s" fill="freeze" keyTimes="0; 0.525701; 1"/></g><animateTransform type="translate" additive="sum" attributeName="transform" values="0 0;25 -52;10 -52;63 -24;-20 -38;34 0;31 -59;0 0" begin="0s" dur="1.61s" fill="freeze" keyTimes="0; 0.10089; 0.238098; 0.451983; 0.669904; 0.778864; 0.879753; 1"/><animateTransform type="translate" additive="sum" attributeName="transform" values="0 0;-54 16;-43 6;-31 68;-25 -34;-6 43;-59 18;0 0" begin="2.2s" dur="1.55s" fill="freeze" keyTimes="0; 0.09049; 0.23931; 0.42978; 0.6143; 0.73335; 0.83454; 1"/><animateTransform type="translate" additive="sum" attributeName="transform" values="0 0;0 2;0 0" begin="13.03s" dur="0.92s" fill="freeze" keyTimes="0; 0.44498; 1" repeatCount="indefinite"/></g><g style="transform-origin: 1120.09px 909.17px;" transform="matrix(9.845475, -0.254699, -0.590736, 8.547941, -17332.722656, 26541.644531)"><title>nak</title><path style="fill: rgb(216, 216, 216); stroke: rgb(0, 0, 0);" d="M 1112.83 923.225 L 1126.31 920.828 L 1135.43 910.287"/><ellipse style="stroke: rgb(0, 0, 0); stroke-width: 0px; fill: rgba(221, 214, 194, 0.247); transform-box: fill-box; transform-origin: 48.2837% 48.1158%;" cx="848.622" cy="892.623" rx="44.674" ry="41.985" transform="matrix(0.108528, 0.994093, -1.00013, 0.053237, 272.224097, 18.880838)"><title>area</title></ellipse><path style="stroke: rgb(0, 0, 0); stroke-width: 1.049; fill: rgb(0, 126, 216); transform-origin: 1106.13px 889.958px;" d="M 1079.48 909.8 C 1069.89 903.287 1117.6 853.257 1135.58 872.691 C 1120.51 872.553 1106.27 885.041 1103.1 885.361 C 1099.93 885.682 1081.99 910.115 1079.48 909.8 Z"><title>knite1</title><animateTransform type="rotate" additive="sum" attributeName="transform" values="0;141;0;141;0" begin="0.09s" dur="1.03s" fill="freeze" keyTimes="0; 0.37371; 0.442672; 0.83728; 1"/><animateTransform type="translate" additive="sum" attributeName="transform" values="0 0;45 16;45 27;0 0;45 16;45 16;0 0" begin="0.06s" dur="1.07s" fill="freeze" keyTimes="0; 0.11094; 0.35003; 0.45517; 0.588514; 0.891491; 1"/></path><path style="stroke: rgb(0, 0, 0); stroke-width: 1.049; fill: rgb(0, 126, 216); transform-origin: 1130.68px 932.103px;" d="M 1100.97 950.446 C 1100.26 963.634 1161.61 937.666 1157.88 909.477 C 1149.68 925.344 1133.09 934.27 1131.11 937.433 C 1129.15 940.603 1102.13 947.659 1100.97 950.446 Z"><title>knite2</title><animateTransform type="translate" additive="sum" attributeName="transform" values="0 0;21 -29;0 0;21 -29;0 0" begin="0.51s" dur="1.01s" fill="freeze" keyTimes="0; 0.27435; 0.36872; 0.89903; 1"/><animateTransform type="rotate" additive="sum" attributeName="transform" values="0;-72;0;-72;0" begin="0.53s" dur="0.98s" fill="freeze" keyTimes="0; 0.28177; 0.411; 0.912835; 1"/><animateTransform type="translate" additive="sum" attributeName="transform" values="0 0;25 -72;51 -45;37 12;0 0" begin="3.96s" dur="0.74s" fill="freeze" keyTimes="0; 0.26731; 0.46813; 0.687562; 1"/><animateTransform type="rotate" additive="sum" attributeName="transform" values="0;-127;0;0" begin="3.96s" dur="0.74s" fill="freeze" keyTimes="0; 0.51385; 0.695511; 1"/><animateTransform type="translate" additive="sum" attributeName="transform" values="95 -64;0 0" begin="6.07s" dur="0.26s" fill="freeze" keyTimes="0; 1"/><animateTransform type="translate" additive="sum" attributeName="transform" values="0 0;15 -21;0 0" begin="6.97s" dur="0.23s" fill="freeze" keyTimes="0; 0.80901; 1"/></path><path style="stroke: rgb(0, 0, 0); fill: rgb(0, 126, 216);" d="M 1124.76 900.8 L 1096.78 889.262 L 1113.58 902.983 L 1108.61 906.724 L 1113.89 909.842 L 1099.57 927.615 L 1139.4 907.348 L 1124.76 900.8 Z"><title>head</title></path><animateTransform type="rotate" additive="sum" attributeName="transform" values="0;-28;-28;0" begin="0.1s" dur="2.25s" fill="freeze" keyTimes="0; 0.277591; 0.91982; 1"/><animateTransform type="rotate" additive="sum" attributeName="transform" values="0;-360;0" begin="3.36s" dur="0.24s" fill="freeze" keyTimes="0; 1; 1"/><animateTransform type="rotate" additive="sum" attributeName="transform" values="0;-57;0" begin="3.93s" dur="0.35s" fill="freeze" keyTimes="0; 0.60897; 1"/><animateTransform type="translate" additive="sum" attributeName="transform" values="0 0;0 -2;0 0" begin="7.98s" dur="0.85s" fill="freeze" keyTimes="0; 0.537524; 1" repeatCount="indefinite"/></g><g transform="matrix(-0.06204, 0.163103, 0.211376, 0.047872, 646.50238, -292.126038)" style="transform-origin: 1482.28px 785.251px;"><path style="fill: rgb(216, 216, 216); stroke: rgb(0, 0, 0);" d="M 1396.98 857.598 L 1499.81 708.884"/><path style="stroke: rgb(0, 0, 0); fill: none;" d="M 1447.244 712.903 L 1668.095 821.044 L 1296.457 764.689 L 1537.108 892.63 L 1521.877 677.872"/></g><path style="fill: rgb(216, 216, 216); stroke: rgb(0, 0, 0);" d="M -1813.1 2576.54 L -1815.6 2574.87"/><g transform="matrix(2.018858, 0, 0, 1.320497, -4575.35791, 1570.857666)" style=""><title>MainTower</title><path style="stroke: rgb(0, 0, 0); fill: rgb(105, 105, 105);" d="M 281.753 598.625 L 444.489 535.43 L 510.423 628.906 L 494.886 723.936 L 368.395 787.812 L 276.749 714.374 L 281.753 598.625 Z"/><path style="stroke: rgb(0, 0, 0); fill: rgb(65, 212, 216); transform-box: fill-box; transform-origin: 50% 50%;" d="M 307.82 584.312 L 338.323 519.325 L 421.877 510.042 L 481.559 549.829 L 494.821 605.532 L 473.601 649.298 C 473.601 649.298 394.026 698.369 363.522 671.844 C 333.018 645.319 309.146 666.539 309.146 628.078 C 309.146 589.617 309.146 589.617 307.82 584.312 Z" transform="matrix(0.634589, -0.77285, 0.77285, 0.634589, -0.000018, 0.000041)"/></g><g transform="matrix(1.990339, 0, 0, 1.307596, -4349.47998, 1479.316162)" style=""><title>tower</title><path style="stroke: rgb(0, 0, 0); fill: rgb(105, 105, 105); stroke-width: 1;" d="M 761.163 487.008 C 731.299 447.254 800.543 382.359 850.032 421.221 C 876.864 447.057 873.42 482.402 851.94 498.283 C 821.702 522.94 773.959 513.375 761.163 487.008 Z"/><path style="stroke: rgb(0, 0, 0); fill: rgb(65, 212, 216); stroke-width: 1; transform-origin: 810.375px 418.987px;" d="M 779.126 414.788 L 789.32 388.959 L 817.245 385.269 L 837.191 401.083 L 841.623 423.223 L 834.531 440.618 C 834.531 440.618 807.937 460.122 797.742 449.579 C 787.547 439.036 779.569 447.471 779.569 432.184 C 779.569 416.897 779.569 416.897 779.126 414.788 Z" transform="matrix(0.634589, -0.77285, 0.77285, 0.634589, -0.000014, 0.000041)"><animateTransform type="rotate" additive="sum" attributeName="transform" values="0;360" begin="0s" dur="2.47s" fill="freeze" keyTimes="0; 1" repeatCount="indefinite"/></path></g><g transform="matrix(1.990339, 0, 0, 1.307596, -1571.20874, 486.331146)" style=""><title>tower</title><path style="stroke: rgb(0, 0, 0); fill: rgb(105, 105, 105); stroke-width: 1;" d="M 761.163 487.008 C 731.299 447.254 800.543 382.359 850.032 421.221 C 876.864 447.057 873.42 482.402 851.94 498.283 C 821.702 522.94 773.959 513.375 761.163 487.008 Z"/><path style="stroke: rgb(0, 0, 0); stroke-width: 1; transform-origin: 810.375px 418.987px; fill: rgb(255, 0, 0);" d="M 779.126 414.788 L 789.32 388.959 L 817.245 385.269 L 837.191 401.083 L 841.623 423.223 L 834.531 440.618 C 834.531 440.618 807.937 460.122 797.742 449.579 C 787.547 439.036 779.569 447.471 779.569 432.184 C 779.569 416.897 779.569 416.897 779.126 414.788 Z" transform="matrix(0.634589, -0.77285, 0.77285, 0.634589, -0.000014, 0.000041)"><animateTransform type="rotate" additive="sum" attributeName="transform" values="0;360" begin="0s" dur="2.47s" fill="freeze" keyTimes="0; 1" repeatCount="indefinite"/></path></g><g transform="matrix(2.297375, 0, 0, 1.335104, 266.113861, -182.307068)" style=""><title>MainTower</title><path style="stroke: rgb(0, 0, 0); fill: rgb(105, 105, 105);" d="M 281.753 598.625 L 444.489 535.43 L 510.423 628.906 L 494.886 723.936 L 368.395 787.812 L 276.749 714.374 L 281.753 598.625 Z"/><path style="stroke: rgb(0, 0, 0); transform-box: fill-box; transform-origin: 50% 50%; fill: rgb(243, 0, 0);" d="M 307.82 584.312 L 338.323 519.325 L 421.877 510.042 L 481.559 549.829 L 494.821 605.532 L 473.601 649.298 C 473.601 649.298 394.026 698.369 363.522 671.844 C 333.018 645.319 309.146 666.539 309.146 628.078 C 309.146 589.617 309.146 589.617 307.82 584.312 Z" transform="matrix(0.634589, -0.77285, 0.77285, 0.634589, -0.000018, 0.000041)"/></g><g style="transform-origin: 1120.09px 909.17px;" transform="matrix(4.95553, -0.15057, -0.272364, 4.628915, 3316.251221, -860.86676)" id="object-0"><title>nak</title><path style="fill: rgb(216, 216, 216); stroke: rgb(0, 0, 0);" d="M 1112.83 923.225 L 1126.31 920.828 L 1135.43 910.287"/><ellipse style="stroke: rgb(0, 0, 0); stroke-width: 0px; fill: rgba(221, 214, 194, 0.247); transform-box: fill-box; transform-origin: 48.2837% 48.1158%;" cx="848.622" cy="892.623" rx="44.674" ry="41.985" transform="matrix(0.108528, 0.994093, -1.00013, 0.053237, 272.224097, 18.880838)"><title>area</title></ellipse><path style="stroke: rgb(0, 0, 0); stroke-width: 1.049; fill: rgb(0, 126, 216); transform-origin: 1106.13px 889.958px;" d="M 1079.48 909.8 C 1069.89 903.287 1117.6 853.257 1135.58 872.691 C 1120.51 872.553 1106.27 885.041 1103.1 885.361 C 1099.93 885.682 1081.99 910.115 1079.48 909.8 Z"><title>knite1</title><animateTransform type="rotate" additive="sum" attributeName="transform" values="0;141;0;141;0" begin="0.09s" dur="1.03s" fill="freeze" keyTimes="0; 0.37371; 0.442672; 0.83728; 1"/><animateTransform type="translate" additive="sum" attributeName="transform" values="0 0;45 16;45 27;0 0;45 16;45 16;0 0" begin="0.06s" dur="1.07s" fill="freeze" keyTimes="0; 0.11094; 0.35003; 0.45517; 0.588514; 0.891491; 1"/></path><path style="stroke: rgb(0, 0, 0); stroke-width: 1.049; fill: rgb(0, 126, 216); transform-origin: 1130.68px 932.103px;" d="M 1100.97 950.446 C 1100.26 963.634 1161.61 937.666 1157.88 909.477 C 1149.68 925.344 1133.09 934.27 1131.11 937.433 C 1129.15 940.603 1102.13 947.659 1100.97 950.446 Z"><title>knite2</title><animateTransform type="translate" additive="sum" attributeName="transform" values="0 0;21 -29;0 0;21 -29;0 0" begin="0.51s" dur="1.01s" fill="freeze" keyTimes="0; 0.27435; 0.36872; 0.89903; 1"/><animateTransform type="rotate" additive="sum" attributeName="transform" values="0;-72;0;-72;0" begin="0.53s" dur="0.98s" fill="freeze" keyTimes="0; 0.28177; 0.411; 0.912835; 1"/><animateTransform type="translate" additive="sum" attributeName="transform" values="0 0;25 -72;51 -45;37 12;0 0" begin="3.96s" dur="0.74s" fill="freeze" keyTimes="0; 0.26731; 0.46813; 0.687562; 1"/><animateTransform type="rotate" additive="sum" attributeName="transform" values="0;-127;0;0" begin="3.96s" dur="0.74s" fill="freeze" keyTimes="0; 0.51385; 0.695511; 1"/><animateTransform type="translate" additive="sum" attributeName="transform" values="95 -64;0 0" begin="6.07s" dur="0.26s" fill="freeze" keyTimes="0; 1"/><animateTransform type="translate" additive="sum" attributeName="transform" values="0 0;15 -21;0 0" begin="6.97s" dur="0.23s" fill="freeze" keyTimes="0; 0.80901; 1"/></path><path style="stroke: rgb(0, 0, 0); fill: rgb(0, 126, 216);" d="M 1124.76 900.8 L 1096.78 889.262 L 1113.58 902.983 L 1108.61 906.724 L 1113.89 909.842 L 1099.57 927.615 L 1139.4 907.348 L 1124.76 900.8 Z"><title>head</title></path><animateTransform type="rotate" additive="sum" attributeName="transform" values="0;-28;-28;0" begin="0.1s" dur="2.04s" fill="freeze" keyTimes="0; 0.277591; 0.94616; 1"/><animateTransform type="rotate" additive="sum" attributeName="transform" values="0;-360;0" begin="3.36s" dur="0.24s" fill="freeze" keyTimes="0; 1; 1"/><animateTransform type="rotate" additive="sum" attributeName="transform" values="0;-57;0" begin="3.93s" dur="0.35s" fill="freeze" keyTimes="0; 0.60897; 1"/><animateTransform type="translate" additive="sum" attributeName="transform" values="0 0;0 -2;0 0" begin="7.98s" dur="0.85s" fill="freeze" keyTimes="0; 0.537524; 1" repeatCount="indefinite"/></g><g style="" transform="matrix(12.274962, 0, 0, 9.63428, -8743.607422, -6938.959473)"><title>murad</title><g><title>body</title><ellipse style="fill: rgba(206, 218, 170, 0); stroke-width: 0px; stroke: url(&quot;#gradient-1&quot;);" cx="1247.15" cy="744.206" rx="27.74" ry="27.321"><title>skill2</title><animate attributeName="fill" values="rgb(80.784% 85.49% 66.667% / 0);rgb(100% 64.314% 12.549% / 0.50196);rgb(100% 64.314% 12.549% / 0.50196);rgb(100% 64.314% 12.549% / 0)" begin="7.52s" dur="3.26s" fill="freeze" keyTimes="0; 0.239141; 0.766011; 1"/></ellipse><path style="stroke: rgb(0, 0, 0); fill: rgb(54, 54, 54);" d="M 1245.898 732.805 C 1243.546 732.081 1241.629 737.142 1242.082 738.952 L 1244.469 744.918 C 1244.625 745.337 1246.212 742.368 1246.288 743.46 C 1246.386 744.858 1249.442 747.186 1249.098 742.695 C 1251.077 744.956 1252.964 735.066 1250.985 732.805 C 1250.168 732.261 1245.715 732.683 1245.898 732.805 Z"/><path style="stroke: rgb(0, 0, 0); stroke-width: 0px; fill: rgb(61, 61, 61);" d="M 1243.169 725.575 L 1246.421 722.705 L 1250.184 722.769 C 1250.184 722.769 1251.015 721.175 1250.12 719.262 C 1249.532 718.005 1243.845 717.459 1241.611 720.981 C 1240.446 722.818 1241.071 723.475 1241.938 728.023"/><ellipse style="stroke-width: 0px; stroke: rgb(255, 240, 165); fill: rgb(255, 220, 1);" cx="1246.21" cy="726.136" rx="4.301" ry="5.201"/><path style="stroke: rgb(0, 0, 0); fill: rgb(81, 81, 81); stroke-width: 0px;" d="M 1240.778 726.789 C 1245.757 735.005 1250.192 732.559 1251.017 725.51"/><path style="stroke-width: 0px; stroke: rgb(0, 0, 0); fill: rgb(181, 0, 0);" d="M 1240.501 721.891 L 1250.781 720.942 L 1250.451 723.088 L 1240.667 723.873 L 1238.272 725.73 L 1237.281 724.203 L 1240.501 721.891 Z"/><animate attributeName="opacity" values="1;0.09;0.02;1" begin="0.03s" dur="1.72s" fill="freeze" keyTimes="0; 0.108554; 0.821149; 1"/><animate attributeName="opacity" values="1;0.03;0.02;1" begin="2.15s" dur="2s" fill="freeze" keyTimes="0; 0.13279; 0.85693; 1"/></g><g style="transform-origin: 1251.88px 737.307px;"><title>knite</title><path style="fill: rgb(255, 255, 255); stroke: rgb(99, 99, 99); transform-origin: 1247.62px 738.586px;" d="M 1248.94 735.155 L 1248.31 729.148 L 1246.61 730.351 L 1247.1 735.738 L 1248.32 748.397 C 1248.32 748.397 1251.18 736.026 1248.96 735.151" transform="matrix(0.297038, 1.053773, -0.865241, 0.297038, 0.000005, -0.000009)"/><ellipse style="stroke-width: 0px; stroke: rgb(0, 0, 0); fill: rgb(51, 51, 51); transform-origin: 1253.36px 725.035px;" cx="1251.33" cy="720.656" rx="2.11" ry="1.477" transform="matrix(-0.556831, -0.830626, -0.949273, 0.379844, -6.305622, 11.716144)"><title>handle</title></ellipse><animateTransform type="rotate" additive="sum" attributeName="transform" values="0;-50;0" begin="11.08s" dur="0.34s" fill="freeze" keyTimes="0; 0.525701; 1"/></g><animateTransform type="translate" additive="sum" attributeName="transform" values="0 0;25 -52;10 -52;63 -24;-20 -38;34 0;31 -59;0 0" begin="0s" dur="1.61s" fill="freeze" keyTimes="0; 0.10089; 0.238098; 0.451983; 0.669904; 0.778864; 0.879753; 1"/><animateTransform type="translate" additive="sum" attributeName="transform" values="0 0;-54 16;-43 6;-31 68;-25 -34;-6 43;-59 18;0 0" begin="2.2s" dur="1.55s" fill="freeze" keyTimes="0; 0.09049; 0.23931; 0.42978; 0.6143; 0.73335; 0.83454; 1"/><animateTransform type="translate" additive="sum" attributeName="transform" values="0 0;0 2;0 0" begin="13.03s" dur="0.92s" fill="freeze" keyTimes="0; 0.44498; 1" repeatCount="indefinite"/></g><ellipse style="fill: rgb(59, 59, 59); stroke: rgba(0, 0, 0, 0.518);" cx="-4698.2" cy="2822.07" rx="465.055" ry="322.141"/><ellipse style="fill: rgb(59, 59, 59); stroke: rgba(0, 0, 0, 0.518); stroke-width: 1;" cx="2052.74" cy="380.023" rx="417.46" ry="303.305"/></svg>